<?xml version="1.0" standalone="no"?>
<!DOCTYPE svg PUBLIC "-//W3C//DTD SVG 20010904//EN"
 "http://www.w3.org/TR/2001/REC-SVG-20010904/DTD/svg10.dtd">
<svg version="1.0" xmlns="http://www.w3.org/2000/svg"
 width="300.000000pt" height="300.000000pt" viewBox="0 0 300.000000 300.000000"
 preserveAspectRatio="xMidYMid meet">
<metadata>
Created by potrace 1.10, written by Peter Selinger 2001-2011
</metadata>
<g transform="translate(0.000000,300.000000) scale(0.100000,-0.100000)"
fill="#000000" stroke="none">
<path d="M534 2289 c-18 -20 -19 -41 -19 -399 l0 -378 40 -58 c36 -51 71 -96
200 -251 19 -23 35 -45 35 -49 0 -4 6 -12 14 -18 7 -6 62 -72 121 -146 59 -74
124 -155 144 -180 83 -104 101 -117 172 -125 36 -4 174 -5 307 -3 234 3 242 4
264 25 19 19 20 25 9 45 -9 17 -412 527 -506 641 -9 9 -59 72 -112 140 -53 67
-99 124 -103 127 -3 3 -21 25 -40 50 -19 25 -40 52 -47 60 -7 8 -45 56 -84
105 -39 50 -82 102 -95 117 -13 15 -24 32 -24 37 0 5 -4 11 -9 13 -4 2 -47 53
-95 113 -79 100 -131 155 -147 155 -3 0 -14 -9 -25 -21z m651 -777 c341 -428
620 -781 620 -787 0 -6 -112 -9 -309 -8 -308 2 -310 2 -332 25 -13 13 -156
189 -318 393 l-295 369 -3 386 c-2 212 -2 388 0 393 2 4 6 7 10 6 4 0 286
-350 627 -777z"/>
<path d="M2369 2248 c-168 -214 -270 -342 -310 -389 -21 -25 -65 -80 -98 -122
-33 -43 -73 -94 -90 -115 -17 -20 -47 -57 -67 -82 -19 -25 -42 -54 -51 -64
-96 -117 -153 -197 -153 -213 0 -46 15 -48 330 -48 230 0 302 3 321 13 30 17
186 207 217 265 l23 42 -3 373 c-3 402 -2 391 -55 392 -15 0 -36 -17 -64 -52z
m82 -353 c-1 -293 -4 -391 -13 -404 -53 -73 -193 -241 -202 -241 -458 -5 -616
-4 -616 5 0 14 820 1038 827 1032 3 -3 5 -180 4 -392z"/>
</g>
</svg>
